HIERARCHY
ROOT Hips
{
	OFFSET 0.00000 0.00000 0.00000
	CHANNELS 6 Xposition Yposition Zposition Zrotation Yrotation Xrotation 
	JOINT LHipJoint
	{
		OFFSET 0 0 0
		CHANNELS 3 Zrotation Yrotation Xrotation
		JOINT LeftUpLeg
		{
			OFFSET 1.37959 -1.78713 0.86582
			CHANNELS 3 Zrotation Yrotation Xrotation
			JOINT LeftLeg
			{
				OFFSET 2.54611 -6.99539 0.00000
				CHANNELS 3 Zrotation Yrotation Xrotation
				JOINT LeftFoot
				{
					OFFSET 2.59951 -7.14211 0.00000
					CHANNELS 3 Zrotation Yrotation Xrotation
					JOINT LeftToeBase
					{
						OFFSET 0.18493 -0.50810 1.96120
						CHANNELS 3 Zrotation Yrotation Xrotation
						End Site
						{
							OFFSET 0.00000 -0.00000 1.02054
						}
					}
				}
			}
		}
	}
	JOINT RHipJoint
	{
		OFFSET 0 0 0
		CHANNELS 3 Zrotation Yrotation Xrotation
		JOINT RightUpLeg
		{
			OFFSET -1.33564 -1.78713 0.86582
			CHANNELS 3 Zrotation Yrotation Xrotation
			JOINT RightLeg
			{
				OFFSET -2.52705 -6.94302 0.00000
				CHANNELS 3 Zrotation Yrotation Xrotation
				JOINT RightFoot
				{
					OFFSET -2.55964 -7.03257 0.00000
					CHANNELS 3 Zrotation Yrotation Xrotation
					JOINT RightToeBase
					{
						OFFSET -0.25804 -0.70896 2.12109
						CHANNELS 3 Zrotation Yrotation Xrotation
						End Site
						{
							OFFSET -0.00000 -0.00000 1.11821
						}
					}
				}
			}
		}
	}
	JOINT LowerBack
	{
		OFFSET 0 0 0
		CHANNELS 3 Zrotation Yrotation Xrotation
		JOINT Spine
		{
			OFFSET -0.02031 2.24248 -0.18900
			CHANNELS 3 Zrotation Yrotation Xrotation
			JOINT Spine1
			{
				OFFSET 0.08342 2.24689 -0.03799
				CHANNELS 3 Zrotation Yrotation Xrotation
				JOINT Neck
				{
					OFFSET 0 0 0
					CHANNELS 3 Zrotation Yrotation Xrotation
					JOINT Neck1
					{
						OFFSET -0.11607 1.55844 0.24628
						CHANNELS 3 Zrotation Yrotation Xrotation
						JOINT Head
						{
							OFFSET 0.06877 1.60174 -0.17013
							CHANNELS 3 Zrotation Yrotation Xrotation
							End Site
							{
								OFFSET 0.03358 1.61266 -0.08543
							}
						}
					}
				}
				JOINT LeftShoulder
				{
					OFFSET 0 0 0
					CHANNELS 3 Zrotation Yrotation Xrotation
					JOINT LeftArm
					{
						OFFSET 3.47537 0.55866 -0.72348
						CHANNELS 3 Zrotation Yrotation Xrotation
						JOINT LeftForeArm
						{
							OFFSET 5.38154 -0.00000 0.00000
							CHANNELS 3 Zrotation Yrotation Xrotation
							JOINT LeftHand
							{
								OFFSET 3.33312 -0.00000 0.00000
								CHANNELS 3 Zrotation Yrotation Xrotation
								JOINT LeftFingerBase
								{
									OFFSET 0 0 0
									CHANNELS 3 Zrotation Yrotation Xrotation
									JOINT LeftHandIndex1
									{
										OFFSET 0.71079 -0.00000 0.00000
										CHANNELS 3 Zrotation Yrotation Xrotation
										End Site
										{
											OFFSET 0.57306 -0.00000 0.00000
										}
									}
								}
								JOINT LThumb
								{
									OFFSET 0 0 0
									CHANNELS 3 Zrotation Yrotation Xrotation
									End Site
									{
										OFFSET 0.58181 -0.00000 0.58181
									}
								}
							}
						}
					}
				}
				JOINT RightShoulder
				{
					OFFSET 0 0 0
					CHANNELS 3 Zrotation Yrotation Xrotation
					JOINT RightArm
					{
						OFFSET -3.27844 0.90739 -0.35708
						CHANNELS 3 Zrotation Yrotation Xrotation
						JOINT RightForeArm
						{
							OFFSET -5.16954 -0.00000 0.00000
							CHANNELS 3 Zrotation Yrotation Xrotation
							JOINT RightHand
							{
								OFFSET -3.38287 -0.00000 0.00000
								CHANNELS 3 Zrotation Yrotation Xrotation
								JOINT RightFingerBase
								{
									OFFSET 0 0 0
									CHANNELS 3 Zrotation Yrotation Xrotation
									JOINT RightHandIndex1
									{
										OFFSET -0.81797 -0.00000 0.00000
										CHANNELS 3 Zrotation Yrotation Xrotation
										End Site
										{
											OFFSET -0.65947 -0.00000 0.00000
										}
									}
								}
								JOINT RThumb
								{
									OFFSET 0 0 0
									CHANNELS 3 Zrotation Yrotation Xrotation
									End Site
									{
										OFFSET -0.66953 -0.00000 0.66953
									}
								}
							}
						}
					}
				}
			}
		}
	}
}
MOTION
Frames: 6
Frame Time: .0083333
4.686300 17.464900 2.464200 -171.608000 4.897900 -174.017000 0.000000 0.000000 0.000000 -4.474000 -12.851900 -34.544700 1.749900 8.324500 23.704100 0.654100 -1.046800 -14.957300 0.628900 -5.074400 -14.121000 0.000000 0.000000 0.000000 32.305100 1.510200 16.566400 0.000000 -0.000000 0.000000 -0.453000 2.229300 -12.139600 -0.104100 -2.080500 5.728200 5.521800 1.876000 -1.110500 3.126100 2.546900 0.798100 0.190400 1.388700 1.536100 -10.780000 -3.409100 -18.324900 6.703200 -3.574400 20.350000 3.628900 -1.868000 9.798800 -0.000000 -0.000000 0.000000 -91.425100 7.106700 14.386500 16.377500 -26.029800 -3.810100 -0.000000 -0.000000 8.967300 -2.045800 38.062300 -1.261600 -7.125000 0.000000 -0.000000 -44.185300 62.440500 -20.832800 -0.000000 -0.000000 0.000000 86.375300 2.972200 24.710400 -18.333500 28.582100 -4.707700 0.000000 -0.000000 -13.521400 -12.200400 19.183000 -4.063800 7.125000 -0.000000 -0.000000 10.396200 -10.635800 8.442700
4.676800 17.443400 2.308800 -171.802000 4.819500 -174.022000 0.000000 0.000000 0.000000 -4.968100 -12.537100 -34.502500 1.829300 8.501100 24.246800 0.603900 -0.818400 -14.423400 0.632300 -5.087700 -14.158900 0.000000 0.000000 0.000000 32.032700 1.386600 17.136400 0.000000 -0.000000 0.000000 -0.439700 2.140100 -11.969100 -0.153300 -2.522700 6.952700 5.416500 1.973900 -1.103300 2.990700 2.671800 0.748100 0.111400 1.443800 1.487300 -10.572400 -3.480600 -17.659200 6.633400 -3.747200 19.691000 3.538000 -1.933900 9.456000 -0.000000 -0.000000 0.000000 -91.300800 7.002100 14.153000 16.068300 -25.613100 -3.675400 -0.000000 -0.000000 9.462600 -2.345100 38.101700 -1.447600 -7.125000 0.000000 -0.000000 -44.518700 62.390900 -20.972700 -0.000000 -0.000000 0.000000 86.609900 2.863900 24.368100 -18.353900 28.608000 -4.717500 0.000000 -0.000000 -13.375300 -12.430300 18.798300 -4.062700 7.125000 -0.000000 -0.000000 10.242100 -10.998200 8.236100
4.669300 17.414100 2.152200 -171.877000 4.850900 -174.069000 0.000000 0.000000 0.000000 -5.367900 -12.065000 -34.378500 1.917300 8.691800 24.835700 0.572400 -0.954300 -13.995600 0.623900 -5.054500 -14.064000 0.000000 0.000000 0.000000 31.911300 1.335300 17.804500 0.000000 0.000000 -0.000000 -0.422700 1.923200 -11.765200 -0.135800 -2.375200 6.543900 5.284600 2.083400 -1.168500 2.983300 2.807200 0.869400 0.187400 1.513800 1.648300 -10.138200 -3.568300 -17.415300 6.153300 -3.844200 19.055400 3.277500 -1.979900 9.182300 0.000000 -0.000000 0.000000 -91.293200 6.700300 14.248700 15.808900 -25.260800 -3.564000 -0.000000 -0.000000 9.548400 -2.321800 38.175100 -1.435500 -7.125000 0.000000 -0.000000 -44.593100 62.450000 -21.077100 0.000000 -0.000000 0.000000 86.660400 2.908500 24.020100 -18.410900 28.680100 -4.744800 0.000000 -0.000000 -13.543500 -13.273300 18.556000 -4.293100 7.125000 -0.000000 -0.000000 9.690600 -11.158900 7.746400
4.661300 17.388000 1.993900 -171.621000 4.896300 -174.181000 0.000000 0.000000 0.000000 -5.395000 -11.569700 -34.112700 2.005300 8.877100 25.411800 0.509900 -1.032200 -13.171500 0.756500 -5.554900 -15.498200 0.000000 0.000000 0.000000 32.145400 1.266100 18.588500 0.000000 -0.000000 0.000000 -0.409000 1.808800 -11.589000 -0.166600 -2.629600 7.249200 5.487300 2.147800 -1.098700 3.060200 2.896600 1.031500 0.159300 1.569700 1.785400 -10.151000 -3.612900 -17.979600 6.266700 -3.861600 19.227100 3.316600 -1.965000 9.348700 -0.000000 -0.000000 0.000000 -91.231600 6.326200 14.316800 15.516900 -24.861200 -3.440300 -0.000000 -0.000000 9.462700 -2.143600 38.204700 -1.326100 -7.125000 0.000000 -0.000000 -44.464600 62.517900 -21.073600 -0.000000 -0.000000 0.000000 86.681900 2.955300 23.872000 -18.449100 28.728400 -4.763100 0.000000 -0.000000 -13.576000 -13.797500 18.378700 -4.427600 7.125000 -0.000000 -0.000000 9.345500 -11.285100 7.438100
4.648700 17.374000 1.829700 -171.439000 4.951000 -174.253000 0.000000 0.000000 0.000000 -5.590200 -10.912400 -34.004700 2.090300 9.051700 25.957100 0.403300 -1.305100 -11.611400 0.961000 -6.242000 -17.488300 0.000000 0.000000 0.000000 32.278600 1.228400 19.331400 0.000000 -0.000000 0.000000 -0.379500 1.612300 -11.186900 -0.159300 -2.571800 7.088700 5.725300 2.139800 -0.917700 3.068000 2.900500 1.052200 0.028500 1.575700 1.716600 -10.306000 -3.589300 -18.475800 6.582800 -3.829100 19.639200 3.461800 -1.927200 9.589300 -0.000000 -0.000000 0.000000 -91.239000 6.005500 13.681100 15.074000 -24.249100 -3.256300 -0.000000 -0.000000 9.854100 -1.889400 37.969900 -1.162700 -7.125000 0.000000 -0.000000 -43.917200 62.414200 -20.652300 -0.000000 -0.000000 0.000000 86.790400 2.835500 23.916200 -18.427100 28.700600 -4.752600 0.000000 -0.000000 -13.616600 -14.243800 18.558400 -4.619100 7.125000 -0.000000 -0.000000 9.058300 -11.058300 7.246200
4.633900 17.382100 1.662700 -171.508000 4.986900 -174.259000 0.000000 0.000000 0.000000 -5.959700 -10.510900 -33.993000 2.163000 9.197600 26.415300 0.305300 -1.741200 -9.974700 0.983300 -6.311800 -17.691900 0.000000 0.000000 0.000000 32.158400 1.213100 19.944300 0.000000 0.000000 -0.000000 -0.332500 1.138100 -10.551700 -0.052800 -1.482500 4.077600 5.788800 2.124700 -0.667100 2.985800 2.904100 0.875600 -0.107900 1.566900 1.401400 -10.248300 -3.537200 -18.436100 6.586800 -3.808800 19.886700 3.459500 -1.924500 9.665300 0.000000 0.000000 0.000000 -91.272300 6.086700 12.987500 14.666300 -23.679200 -3.090700 -0.000000 -0.000000 10.449200 -1.604800 37.702700 -0.981600 -7.125000 0.000000 -0.000000 -43.302200 62.293100 -20.179700 0.000000 0.000000 0.000000 87.027500 2.521500 23.758400 -18.273000 28.505300 -4.678800 0.000000 -0.000000 -13.596200 -14.650000 18.590700 -4.764000 7.125000 -0.000000 -0.000000 8.794300 -10.983300 7.043400
